<svg xmlns="http://www.w3.org/2000/svg" viewBox="0 0 24 24"><g><path d="M 14.299 11.915 C 14.299 9.281 16.433 7.147 19.067 7.147 C 21.7 7.147 23.835 9.281 23.835 11.915 C 23.835 14.548 21.7 16.683 19.067 16.683 C 16.433 16.683 14.299 14.548 14.299 11.915 Z" fill="rgb(123, 72, 234)"/><path d="M 16.4 5.008 C 18.821 4.731 20.656 2.704 20.656 0.267 L 20.656 0.24 C 20.652 0.107 20.544 0.001 20.411 0 C 10 0.064 1.589 4.304 1.589 9.531 L 1.589 14.331 C 1.589 19.067 8.411 23.008 17.408 23.829 C 17.552 23.84 17.675 23.728 17.675 23.589 L 17.675 23.216 C 17.675 20.923 16.064 18.928 13.813 18.485 C 8.117 17.36 3.749 14.923 2.203 11.915 C 3.968 8.48 9.467 5.797 16.405 5.008 Z" fill="rgb(255, 255, 255)"/><path d="M 0 18.635 L 0 23.589 C 0 23.723 0.107 23.829 0.24 23.829 L 6.16 23.829 C 6.411 23.829 6.491 23.488 6.267 23.376 C 3.637 22.075 1.632 20.405 0.443 18.507 C 0.315 18.304 0.005 18.4 0.005 18.635 Z" fill="rgb(123, 72, 234)"/><path d="M 0 5.195 L 0 0.24 C 0 0.107 0.107 0 0.24 0 L 6.16 0 C 6.411 0 6.491 0.341 6.267 0.453 C 3.632 1.755 1.627 3.419 0.437 5.323 C 0.309 5.525 0 5.429 0 5.195 Z" fill="rgb(123, 72, 234)"/></g></svg>