<svg xmlns="http://www.w3.org/2000/svg" viewBox="0 0 78 10"><g transform="translate(0 -0.033)"><path d="M 11.691 6.521 C 11.85 6.538 11.963 6.678 11.941 6.834 C 11.89 7.192 11.748 7.534 11.526 7.864 C 11.243 8.277 10.845 8.647 10.335 8.965 C 9.824 9.284 9.217 9.536 8.501 9.72 C 7.786 9.905 7.003 10 6.141 10 C 5.233 10 4.404 9.905 3.649 9.715 C 2.894 9.525 2.247 9.228 1.708 8.82 C 1.169 8.417 0.749 7.897 0.448 7.265 C 0.148 6.633 0 5.878 0 5 C 0 4.122 0.148 3.35 0.448 2.724 C 0.734 2.112 1.166 1.579 1.708 1.169 C 2.247 0.766 2.9 0.47 3.649 0.28 C 4.404 0.095 5.233 0 6.141 0 C 6.992 0 7.769 0.089 8.479 0.268 C 9.188 0.447 9.801 0.694 10.312 1.001 C 10.823 1.309 11.226 1.672 11.515 2.081 C 11.742 2.405 11.884 2.74 11.935 3.098 C 11.958 3.255 11.844 3.395 11.685 3.412 L 10.386 3.529 C 10.245 3.54 10.119 3.447 10.091 3.311 C 10.045 3.104 9.949 2.908 9.812 2.724 C 9.619 2.472 9.347 2.26 8.995 2.075 C 8.643 1.89 8.229 1.751 7.747 1.644 C 7.264 1.544 6.731 1.488 6.146 1.488 C 5.494 1.488 4.903 1.56 4.381 1.7 C 3.853 1.846 3.399 2.064 3.019 2.355 C 2.639 2.645 2.344 3.015 2.14 3.451 C 1.935 3.887 1.833 4.402 1.833 5 C 1.833 5.598 1.935 6.113 2.14 6.555 C 2.344 6.997 2.639 7.36 3.019 7.651 C 3.399 7.942 3.853 8.154 4.381 8.3 C 4.909 8.445 5.494 8.512 6.146 8.512 C 6.748 8.512 7.293 8.456 7.781 8.345 C 8.269 8.233 8.689 8.082 9.035 7.886 C 9.381 7.69 9.654 7.466 9.841 7.209 C 9.977 7.025 10.068 6.829 10.108 6.628 C 10.133 6.489 10.261 6.393 10.403 6.404 Z M 21.623 9.609 L 20.8 9.609 C 20.658 9.609 20.539 9.502 20.522 9.362 L 20.436 8.529 C 20.164 8.937 19.744 9.256 19.177 9.491 C 18.609 9.726 17.877 9.843 16.975 9.843 C 16.271 9.843 15.669 9.787 15.181 9.676 C 14.693 9.564 14.29 9.407 13.984 9.206 C 13.672 9.004 13.45 8.775 13.314 8.507 C 13.178 8.244 13.11 7.953 13.11 7.64 C 13.11 7.192 13.212 6.829 13.422 6.549 C 13.632 6.27 13.904 6.046 14.245 5.884 C 14.585 5.721 14.971 5.604 15.408 5.531 C 15.845 5.459 16.294 5.414 16.748 5.397 C 17.207 5.38 17.65 5.369 18.087 5.38 C 18.524 5.386 18.91 5.386 19.256 5.38 C 19.596 5.375 19.875 5.341 20.085 5.291 C 20.295 5.24 20.397 5.145 20.397 5.006 C 20.397 4.609 20.147 4.306 19.642 4.105 C 19.137 3.904 18.433 3.803 17.536 3.803 C 16.975 3.803 16.509 3.837 16.135 3.904 C 15.766 3.971 15.471 4.06 15.255 4.167 C 15.039 4.279 14.892 4.402 14.807 4.547 C 14.767 4.62 14.733 4.692 14.716 4.771 C 14.682 4.905 14.54 4.983 14.404 4.966 L 13.439 4.855 C 13.304 4.84 13.2 4.731 13.195 4.597 C 13.195 4.29 13.235 4.016 13.325 3.764 C 13.439 3.456 13.66 3.194 13.989 2.987 C 14.319 2.774 14.767 2.617 15.334 2.506 C 15.902 2.394 16.623 2.343 17.497 2.343 C 18.371 2.343 19.108 2.411 19.682 2.539 C 20.249 2.668 20.697 2.852 21.027 3.082 C 21.356 3.317 21.583 3.596 21.708 3.926 C 21.833 4.256 21.895 4.62 21.895 5.017 L 21.895 9.351 C 21.895 9.502 21.77 9.625 21.617 9.625 Z M 17.099 8.378 C 17.644 8.378 18.127 8.333 18.535 8.249 C 18.944 8.166 19.284 8.048 19.557 7.903 C 19.829 7.757 20.028 7.589 20.17 7.405 C 20.306 7.215 20.38 7.025 20.397 6.829 L 20.397 5.996 C 20.158 6.197 19.852 6.342 19.472 6.432 C 19.091 6.516 18.688 6.577 18.263 6.611 C 17.831 6.644 17.406 6.667 16.969 6.683 C 16.538 6.695 16.146 6.723 15.794 6.773 C 15.442 6.818 15.158 6.896 14.943 7.008 C 14.721 7.12 14.614 7.287 14.614 7.522 C 14.614 7.634 14.648 7.735 14.716 7.841 C 14.784 7.942 14.909 8.037 15.096 8.115 C 15.278 8.199 15.533 8.261 15.851 8.311 C 16.169 8.356 16.589 8.384 17.099 8.384 Z M 34.568 9.609 C 34.414 9.609 34.29 9.486 34.29 9.334 L 34.29 5.129 C 34.29 4.748 34.148 4.43 33.864 4.172 C 33.58 3.921 33.109 3.792 32.451 3.792 C 31.792 3.792 31.35 3.921 31.032 4.178 C 30.714 4.435 30.555 4.754 30.555 5.129 L 30.555 9.334 C 30.555 9.485 30.43 9.609 30.277 9.609 L 29.023 9.609 C 28.869 9.609 28.745 9.486 28.745 9.334 L 28.745 5.129 C 28.745 4.748 28.597 4.43 28.308 4.172 C 28.018 3.921 27.547 3.792 26.906 3.792 C 26.265 3.792 25.828 3.921 25.516 4.178 C 25.204 4.435 25.039 4.771 25.022 5.185 L 25.022 9.329 C 25.022 9.48 24.897 9.603 24.744 9.603 L 23.49 9.603 C 23.336 9.603 23.212 9.48 23.212 9.329 L 23.212 2.841 C 23.212 2.69 23.336 2.567 23.49 2.567 L 24.205 2.567 C 24.33 2.567 24.437 2.645 24.471 2.763 L 24.727 3.613 C 25.016 3.199 25.391 2.886 25.856 2.668 C 26.322 2.455 26.815 2.343 27.332 2.343 C 27.967 2.343 28.524 2.472 29.006 2.724 C 29.48 2.965 29.859 3.354 30.084 3.831 C 30.22 3.579 30.391 3.361 30.595 3.177 C 30.799 2.992 31.026 2.836 31.276 2.707 C 31.526 2.584 31.787 2.489 32.071 2.427 C 32.764 2.279 33.485 2.306 34.165 2.506 C 34.551 2.623 34.885 2.796 35.164 3.031 C 35.447 3.266 35.669 3.557 35.828 3.904 C 35.992 4.251 36.072 4.659 36.072 5.129 L 36.072 9.334 C 36.072 9.485 35.947 9.609 35.794 9.609 L 34.539 9.609 Z M 42.263 2.332 C 43.029 2.332 43.716 2.411 44.329 2.573 C 44.942 2.735 45.458 2.975 45.878 3.3 C 46.298 3.624 46.622 4.032 46.849 4.519 C 47.076 5.006 47.189 5.582 47.189 6.236 L 47.189 6.426 C 47.189 6.56 47.081 6.667 46.945 6.667 L 39.114 6.667 C 39.142 7.176 39.426 7.584 39.959 7.903 C 40.493 8.221 41.264 8.378 42.275 8.378 C 42.757 8.378 43.183 8.35 43.557 8.294 C 43.926 8.238 44.244 8.166 44.499 8.076 C 44.755 7.987 44.953 7.886 45.095 7.785 C 45.18 7.724 45.243 7.657 45.282 7.595 C 45.334 7.517 45.407 7.466 45.498 7.466 L 46.792 7.466 C 46.968 7.466 47.093 7.64 47.019 7.796 C 46.911 8.037 46.769 8.261 46.582 8.468 C 46.315 8.758 45.975 9.01 45.561 9.217 C 45.146 9.424 44.664 9.581 44.108 9.687 C 43.552 9.793 42.939 9.843 42.258 9.843 C 41.491 9.843 40.805 9.765 40.192 9.609 C 39.579 9.452 39.062 9.217 38.637 8.898 C 38.218 8.591 37.881 8.188 37.655 7.724 C 37.422 7.26 37.309 6.711 37.309 6.091 C 37.309 5.47 37.422 4.927 37.655 4.457 C 37.888 3.988 38.211 3.591 38.637 3.277 C 39.062 2.964 39.579 2.729 40.192 2.567 C 40.805 2.405 41.491 2.327 42.258 2.327 Z M 42.275 3.798 C 41.718 3.798 41.247 3.837 40.856 3.921 C 40.464 4.004 40.141 4.116 39.891 4.262 C 39.641 4.407 39.448 4.575 39.323 4.771 C 39.199 4.966 39.131 5.173 39.125 5.391 L 39.125 5.487 L 45.396 5.487 L 45.396 5.252 C 45.396 4.838 45.141 4.491 44.624 4.217 C 44.108 3.937 43.33 3.803 42.286 3.803 Z M 48.432 9.368 L 48.432 2.808 C 48.432 2.673 48.54 2.567 48.676 2.567 L 49.482 2.567 C 49.596 2.567 49.692 2.64 49.72 2.746 L 49.93 3.551 C 50.095 3.182 50.35 2.875 50.691 2.623 C 51.031 2.371 51.434 2.209 51.9 2.136 C 52.365 2.064 52.876 2.081 53.432 2.192 C 53.948 2.299 54.482 2.511 55.038 2.83 C 55.112 2.875 55.163 2.959 55.163 3.043 L 55.163 4.29 C 55.163 4.48 54.953 4.592 54.788 4.497 C 54.147 4.116 53.568 3.876 53.052 3.775 C 52.439 3.652 51.922 3.669 51.508 3.814 C 51.088 3.965 50.77 4.217 50.555 4.569 C 50.339 4.927 50.231 5.319 50.231 5.761 L 50.231 9.362 C 50.231 9.497 50.123 9.603 49.987 9.603 L 48.676 9.603 C 48.54 9.603 48.432 9.497 48.432 9.362 Z M 56.417 9.368 L 56.417 2.808 C 56.417 2.673 56.525 2.567 56.661 2.567 L 57.972 2.567 C 58.108 2.567 58.216 2.673 58.216 2.808 L 58.216 9.368 C 58.216 9.502 58.108 9.609 57.972 9.609 L 56.661 9.609 C 56.525 9.609 56.417 9.502 56.417 9.368 Z M 59.595 2.567 L 60.895 2.567 L 60.895 0.699 C 60.895 0.565 61.003 0.459 61.139 0.459 L 62.45 0.459 C 62.586 0.459 62.694 0.565 62.694 0.699 L 62.694 2.567 L 67.075 2.567 C 67.211 2.567 67.319 2.673 67.319 2.808 L 67.319 3.786 C 67.319 3.921 67.211 4.027 67.075 4.027 L 62.694 4.027 L 62.694 7.097 C 62.694 7.416 62.768 7.685 62.921 7.903 C 63.074 8.115 63.33 8.272 63.693 8.367 C 64.056 8.462 64.544 8.49 65.146 8.462 C 65.685 8.434 66.337 8.35 67.109 8.205 C 67.263 8.177 67.404 8.289 67.404 8.44 L 67.404 9.407 C 67.404 9.525 67.319 9.625 67.2 9.648 C 66.122 9.849 65.191 9.966 64.414 9.989 C 63.591 10.017 62.915 9.933 62.393 9.737 C 61.871 9.541 61.491 9.228 61.247 8.792 C 61.003 8.356 60.884 7.796 60.884 7.097 L 60.884 4.027 L 59.584 4.027 C 59.448 4.027 59.34 3.921 59.34 3.786 L 59.34 2.808 C 59.34 2.673 59.448 2.567 59.584 2.567 Z M 73.074 2.332 C 73.84 2.332 74.527 2.411 75.14 2.573 C 75.753 2.735 76.269 2.975 76.689 3.3 C 77.109 3.624 77.432 4.032 77.659 4.519 C 77.886 5.006 78 5.582 78 6.236 L 78 6.426 C 78 6.56 77.892 6.667 77.756 6.667 L 69.924 6.667 C 69.953 7.176 70.236 7.584 70.77 7.903 C 71.303 8.221 72.075 8.378 73.085 8.378 C 73.568 8.378 73.993 8.35 74.368 8.294 C 74.737 8.238 75.055 8.166 75.31 8.076 C 75.565 7.987 75.764 7.886 75.906 7.785 C 75.991 7.724 76.053 7.657 76.093 7.595 C 76.144 7.517 76.218 7.466 76.309 7.466 L 77.603 7.466 C 77.779 7.466 77.904 7.64 77.83 7.796 C 77.722 8.037 77.58 8.261 77.393 8.468 C 77.126 8.758 76.786 9.01 76.371 9.217 C 75.957 9.424 75.475 9.581 74.918 9.687 C 74.362 9.793 73.749 9.843 73.068 9.843 C 72.302 9.843 71.615 9.765 71.002 9.609 C 70.39 9.452 69.873 9.217 69.447 8.898 C 69.028 8.591 68.691 8.188 68.466 7.724 C 68.233 7.26 68.119 6.711 68.119 6.091 C 68.119 5.47 68.233 4.927 68.466 4.457 C 68.698 3.988 69.022 3.591 69.447 3.277 C 69.873 2.964 70.39 2.729 71.002 2.567 C 71.615 2.405 72.302 2.327 73.068 2.327 Z M 73.085 3.798 C 72.529 3.798 72.058 3.837 71.666 3.921 C 71.275 4.004 70.951 4.116 70.702 4.262 C 70.452 4.407 70.259 4.575 70.134 4.771 C 70.009 4.966 69.941 5.173 69.936 5.391 L 69.936 5.487 L 76.207 5.487 L 76.207 5.252 C 76.207 4.838 75.951 4.491 75.435 4.217 C 74.918 3.937 74.141 3.803 73.097 3.803 Z" fill="rgb(0, 0, 0)"/><path d="M 56.281 1.023 C 56.281 0.458 56.746 0 57.32 0 C 57.893 0 58.358 0.458 58.358 1.023 C 58.358 1.589 57.893 2.047 57.32 2.047 C 56.746 2.047 56.281 1.589 56.281 1.023 Z" fill="rgb(0, 0, 0)"/></g></svg>