<svg xmlns="http://www.w3.org/2000/svg" viewBox="0 0 56.366 34.108" overflow="visible" ><g><path d="M 15.888 12.39 C 15.888 13.092 15.963 13.662 16.094 14.079 C 16.244 14.497 16.431 14.952 16.693 15.445 C 16.787 15.597 16.825 15.749 16.825 15.882 C 16.825 16.071 16.712 16.261 16.469 16.451 L 15.288 17.248 C 15.12 17.362 14.951 17.419 14.801 17.419 C 14.614 17.419 14.426 17.324 14.239 17.153 C 13.977 16.868 13.752 16.565 13.565 16.261 C 13.377 15.939 13.19 15.578 12.984 15.142 C 11.522 16.887 9.686 17.76 7.475 17.76 C 5.902 17.76 4.646 17.305 3.728 16.394 C 2.81 15.483 2.342 14.269 2.342 12.751 C 2.342 11.138 2.904 9.829 4.047 8.842 C 5.19 7.855 6.707 7.362 8.637 7.362 C 9.274 7.362 9.93 7.419 10.623 7.514 C 11.316 7.609 12.028 7.761 12.778 7.931 L 12.778 6.546 C 12.778 5.104 12.478 4.098 11.897 3.51 C 11.298 2.922 10.286 2.637 8.843 2.637 C 8.187 2.637 7.513 2.713 6.82 2.884 C 6.127 3.055 5.452 3.264 4.796 3.529 C 4.497 3.662 4.272 3.738 4.141 3.776 C 4.009 3.814 3.916 3.833 3.841 3.833 C 3.578 3.833 3.447 3.643 3.447 3.245 L 3.447 2.315 C 3.447 2.011 3.485 1.784 3.578 1.651 C 3.672 1.518 3.841 1.385 4.103 1.252 C 4.759 0.911 5.546 0.626 6.464 0.398 C 7.382 0.152 8.356 0.038 9.387 0.038 C 11.616 0.038 13.246 0.55 14.295 1.575 C 15.326 2.6 15.85 4.155 15.85 6.243 L 15.85 12.39 Z M 8.281 15.274 C 8.899 15.274 9.536 15.161 10.211 14.933 C 10.885 14.705 11.485 14.288 11.991 13.719 C 12.291 13.358 12.515 12.96 12.628 12.504 C 12.74 12.049 12.815 11.499 12.815 10.853 L 12.815 10.056 C 12.272 9.924 11.691 9.81 11.091 9.734 C 10.492 9.658 9.911 9.62 9.33 9.62 C 8.075 9.62 7.157 9.867 6.539 10.379 C 5.92 10.891 5.621 11.612 5.621 12.561 C 5.621 13.453 5.846 14.117 6.314 14.572 C 6.764 15.047 7.419 15.274 8.281 15.274 Z M 23.326 17.324 C 22.989 17.324 22.764 17.267 22.614 17.134 C 22.464 17.02 22.333 16.754 22.22 16.394 L 17.818 1.727 C 17.705 1.347 17.649 1.101 17.649 0.968 C 17.649 0.664 17.799 0.493 18.099 0.493 L 19.935 0.493 C 20.291 0.493 20.534 0.55 20.665 0.683 C 20.815 0.797 20.928 1.063 21.04 1.423 L 24.188 13.984 L 27.11 1.423 C 27.204 1.044 27.316 0.797 27.466 0.683 C 27.616 0.569 27.879 0.493 28.216 0.493 L 29.715 0.493 C 30.071 0.493 30.314 0.55 30.464 0.683 C 30.614 0.797 30.745 1.063 30.82 1.423 L 33.78 14.136 L 37.021 1.423 C 37.134 1.044 37.265 0.797 37.396 0.683 C 37.546 0.569 37.79 0.493 38.127 0.493 L 39.869 0.493 C 40.169 0.493 40.338 0.645 40.338 0.968 C 40.338 1.063 40.319 1.157 40.3 1.271 C 40.281 1.385 40.244 1.537 40.169 1.746 L 35.654 16.413 C 35.541 16.792 35.41 17.039 35.26 17.153 C 35.11 17.267 34.867 17.343 34.548 17.343 L 32.937 17.343 C 32.581 17.343 32.338 17.286 32.188 17.153 C 32.038 17.02 31.907 16.773 31.832 16.394 L 28.928 4.155 L 26.042 16.375 C 25.949 16.754 25.836 17.001 25.686 17.134 C 25.537 17.267 25.274 17.324 24.937 17.324 Z M 47.401 17.836 C 46.427 17.836 45.452 17.722 44.516 17.494 C 43.579 17.267 42.848 17.02 42.361 16.736 C 42.061 16.565 41.855 16.375 41.78 16.204 C 41.705 16.033 41.668 15.844 41.668 15.673 L 41.668 14.705 C 41.668 14.307 41.818 14.117 42.099 14.117 C 42.211 14.117 42.324 14.136 42.436 14.174 C 42.548 14.212 42.717 14.288 42.904 14.364 C 43.541 14.648 44.235 14.876 44.965 15.028 C 45.715 15.18 46.445 15.256 47.195 15.256 C 48.375 15.256 49.293 15.047 49.93 14.629 C 50.567 14.212 50.904 13.605 50.904 12.827 C 50.904 12.295 50.736 11.859 50.399 11.499 C 50.061 11.138 49.424 10.815 48.506 10.512 L 45.79 9.658 C 44.422 9.222 43.41 8.576 42.792 7.723 C 42.174 6.888 41.855 5.958 41.855 4.971 C 41.855 4.174 42.024 3.472 42.361 2.865 C 42.698 2.258 43.148 1.727 43.71 1.309 C 44.272 0.873 44.909 0.55 45.659 0.323 C 46.408 0.095 47.195 0 48.019 0 C 48.431 0 48.862 0.019 49.274 0.076 C 49.705 0.133 50.099 0.209 50.492 0.285 C 50.867 0.379 51.223 0.474 51.56 0.588 C 51.897 0.702 52.16 0.816 52.347 0.93 C 52.609 1.082 52.797 1.233 52.909 1.404 C 53.022 1.556 53.078 1.765 53.078 2.03 L 53.078 2.922 C 53.078 3.321 52.928 3.529 52.647 3.529 C 52.497 3.529 52.253 3.453 51.935 3.302 C 50.867 2.808 49.668 2.562 48.338 2.562 C 47.27 2.562 46.427 2.732 45.846 3.093 C 45.265 3.453 44.965 4.004 44.965 4.782 C 44.965 5.313 45.153 5.768 45.527 6.129 C 45.902 6.489 46.595 6.85 47.588 7.172 L 50.249 8.026 C 51.598 8.463 52.572 9.07 53.153 9.848 C 53.734 10.626 54.015 11.518 54.015 12.504 C 54.015 13.32 53.846 14.06 53.527 14.705 C 53.19 15.35 52.741 15.92 52.16 16.375 C 51.579 16.849 50.886 17.191 50.08 17.438 C 49.237 17.703 48.356 17.836 47.401 17.836 Z" fill="rgb(161, 161, 170)"/><path d="M 50.929 27.049 C 44.765 31.66 35.81 34.108 28.109 34.108 C 17.318 34.108 7.594 30.066 0.25 23.349 C -0.331 22.818 0.193 22.097 0.887 22.515 C 8.83 27.182 18.629 30.01 28.765 30.01 C 35.604 30.01 43.116 28.567 50.03 25.607 C 51.06 25.133 51.941 26.291 50.929 27.049 Z" fill="rgb(161, 161, 170)"/><path d="M 53.53 24.08 C 52.743 23.056 48.321 23.587 46.317 23.833 C 45.717 23.909 45.624 23.378 46.167 22.98 C 49.689 20.475 55.478 21.196 56.153 22.031 C 56.827 22.885 55.966 28.748 52.668 31.556 C 52.162 31.992 51.675 31.765 51.9 31.196 C 52.649 29.317 54.317 25.086 53.53 24.08 Z" fill="rgb(161, 161, 170)"/></g></svg>