<svg xmlns="http://www.w3.org/2000/svg" viewBox="0 0 167.547 21.353" overflow="visible" ><g><path d="M 130.962 0.01 C 126.958 -0.125 122.629 2.191 120.576 6.551 C 119.302 9.012 118.329 11.751 117.683 14.441 C 117.625 14.677 117.571 14.914 117.521 15.152 C 117.457 15.535 117.452 16.026 117.486 16.526 C 117.644 18.643 119.515 21.203 122.598 21.348 L 126.253 21.348 C 130.256 21.482 134.583 19.165 136.638 14.805 C 137.913 12.344 138.884 9.602 139.531 6.914 C 139.588 6.675 139.643 6.438 139.692 6.202 C 139.759 5.819 139.764 5.33 139.727 4.829 C 139.57 2.711 137.699 0.153 134.617 0.009 L 130.961 0.009 Z M 62.31 0.204 L 63.947 21.141 L 67.23 21.141 L 67.211 21.141 L 67.405 21.141 C 68.044 21.12 68.633 20.79 68.988 20.255 L 68.99 20.255 L 82.375 0.206 L 78.913 0.206 L 69.325 14.596 L 68.199 0.207 L 62.309 0.207 Z M 84.768 0.204 L 77.086 21.141 L 82.982 21.141 L 90.661 0.206 L 84.768 0.206 Z M 98.603 0.204 C 93.306 0.269 90.966 6.192 93.859 9.985 C 95.327 11.787 97.423 13.654 98.607 15.627 C 99.357 16.694 98.555 18.473 97.122 18.49 L 87.77 18.49 L 86.802 21.141 L 98.642 21.141 C 103.284 21.127 106.424 15.634 103.309 11.422 C 101.872 9.288 99.592 7.831 98.243 5.746 C 97.442 4.659 98.247 2.873 99.696 2.854 L 108.401 2.854 L 109.37 0.204 L 98.604 0.204 Z M 113.451 0.204 L 105.774 21.142 L 111.669 21.142 L 119.349 0.206 L 113.451 0.206 Z M 145.279 0.204 L 137.566 21.141 L 140.604 21.141 L 145.919 6.711 L 145.946 6.97 L 150.72 19.928 C 151.014 20.628 151.68 21.099 152.435 21.141 L 155.213 21.141 L 162.928 0.206 L 159.89 0.206 L 154.677 14.355 L 149.125 0.206 L 145.277 0.206 Z M 132.309 2.174 C 133.434 2.263 134.301 3.205 134.304 4.339 C 134.313 4.619 134.265 4.896 134.16 5.149 L 130.265 15.811 C 129.478 17.857 127.652 19.111 125.482 19.175 L 124.906 19.175 C 123.782 19.085 122.914 18.143 122.911 17.009 C 122.902 16.731 122.952 16.454 123.057 16.197 L 126.951 5.535 C 127.738 3.489 129.565 2.238 131.738 2.175 L 132.309 2.175 Z" fill="rgb(161, 161, 170)"/><path d="M 7.681 0.175 L 0 21.111 L 6.261 21.111 L 9.934 11.098 L 17.387 11.098 L 13.714 21.111 L 18.604 21.111 C 19.432 21.111 20.143 20.586 20.431 19.854 C 20.434 19.843 20.437 19.84 20.442 19.834 L 27.654 0.174 L 21.394 0.174 L 18.436 8.235 L 10.983 8.235 L 13.94 0.174 L 7.681 0.174 Z M 31.632 0.175 L 23.953 21.111 L 30.211 21.111 L 37.892 0.175 L 31.631 0.175 Z M 42.15 0.175 L 34.47 21.111 L 40.729 21.111 L 43.674 13.082 L 45.237 11.875 L 49.39 19.964 L 49.392 19.953 L 49.402 19.972 C 49.753 20.704 50.51 21.148 51.316 21.095 C 51.301 21.095 51.284 21.106 51.268 21.106 L 56.583 21.106 L 49.972 8.219 L 60.4 0.173 L 55.723 0.173 L 45.52 8.045 L 48.409 0.173 L 42.15 0.173 Z" fill="rgb(161, 161, 170)"/><path d="M 167.547 2.057 C 167.547 3.223 166.636 4.138 165.451 4.138 C 164.279 4.138 163.344 3.223 163.344 2.057 C 163.344 0.915 164.279 0 165.451 0 C 166.636 0 167.547 0.915 167.547 2.057 M 163.868 2.057 C 163.868 2.972 164.54 3.699 165.464 3.699 C 166.363 3.699 167.023 2.972 167.023 2.069 C 167.023 1.155 166.363 0.414 165.451 0.414 C 164.54 0.414 163.868 1.155 163.868 2.057 M 165.126 3.135 L 164.653 3.135 L 164.653 1.08 C 164.913 1.033 165.176 1.012 165.44 1.016 C 165.825 1.016 166.001 1.08 166.15 1.168 C 166.281 1.28 166.354 1.446 166.349 1.619 C 166.349 1.845 166.174 2.02 165.924 2.094 L 165.924 2.12 C 166.124 2.195 166.237 2.347 166.3 2.623 C 166.363 2.936 166.4 3.061 166.449 3.136 L 165.938 3.136 C 165.875 3.061 165.838 2.873 165.775 2.635 C 165.738 2.409 165.614 2.309 165.352 2.309 L 165.126 2.309 L 165.126 3.136 Z M 165.139 1.969 L 165.363 1.969 C 165.625 1.969 165.838 1.882 165.838 1.668 C 165.838 1.481 165.701 1.356 165.401 1.356 C 165.277 1.356 165.189 1.366 165.139 1.38 L 165.139 1.968 Z" fill="rgb(161, 161, 170)"/></g></svg>