<svg xmlns="http://www.w3.org/2000/svg" viewBox="0 0 119.123 23.033" overflow="visible" ><g><g><g><path d="M 95.251 5.496 C 90.43 5.496 86.521 9.42 86.521 14.264 C 86.521 19.104 90.43 23.03 95.251 23.03 C 96.842 23.03 98.334 22.601 99.617 21.854 L 99.617 23.031 L 103.982 23.031 L 103.982 14.262 C 103.982 9.42 100.074 5.495 95.251 5.495 Z M 99.616 14.264 L 99.616 14.307 C 99.593 16.708 97.647 18.647 95.251 18.647 C 92.84 18.647 90.886 16.685 90.886 14.264 C 90.886 11.843 92.84 9.879 95.251 9.879 C 97.662 9.879 99.616 11.843 99.616 14.264 Z M 32.428 18.315 C 31.986 18.527 31.494 18.648 30.97 18.648 C 29.088 18.639 27.568 17.113 27.576 15.238 L 27.576 9.881 L 30.881 9.881 C 30.881 9.879 31.428 7.948 31.428 5.496 L 27.576 5.496 L 27.576 0.371 C 25.135 0.371 23.21 1.018 23.21 1.018 L 23.21 15.24 C 23.21 19.543 26.685 23.033 30.97 23.033 C 32.385 23.034 33.772 22.645 34.979 21.911 C 33.878 20.91 33.008 19.684 32.428 18.317 Z M 88.398 6.617 C 87.192 5.883 85.804 5.495 84.39 5.496 C 80.105 5.496 76.63 8.986 76.63 13.288 L 76.63 23.03 L 80.995 23.03 L 80.995 13.288 C 80.995 11.406 82.516 9.879 84.39 9.879 C 84.913 9.879 85.408 10 85.848 10.212 C 86.428 8.845 87.298 7.618 88.398 6.617 Z M 2.386 0 C 1.069 0 0 1.071 0 2.395 C 0 3.721 1.069 4.793 2.385 4.793 C 3.703 4.793 4.772 3.72 4.772 2.395 C 4.775 1.762 4.525 1.154 4.077 0.705 C 3.629 0.255 3.02 0.002 2.385 0 Z M 13.976 5.496 C 9.689 5.496 6.216 8.986 6.216 13.289 L 6.216 23.031 L 10.581 23.031 L 10.581 13.289 C 10.581 11.407 12.1 9.879 13.976 9.879 C 14.88 9.883 15.746 10.245 16.383 10.884 C 17.019 11.524 17.375 12.389 17.371 13.289 L 17.371 23.031 L 21.736 23.031 L 21.736 13.289 C 21.736 8.986 18.261 5.496 13.976 5.496 Z M 0.204 23.031 L 4.568 23.031 L 4.568 5.496 C 2.127 5.496 0.204 6.145 0.204 6.145 Z M 51.634 23.03 L 55.999 23.03 L 55.999 0.369 C 54.521 0.372 53.052 0.589 51.637 1.015 Z M 66.494 5.496 C 64.96 5.495 63.453 5.901 62.129 6.672 L 62.129 0.369 C 59.736 0.369 57.838 0.992 57.767 1.015 L 57.763 14.264 C 57.763 19.104 61.673 23.03 66.494 23.03 C 71.315 23.03 75.224 19.106 75.224 14.264 C 75.224 9.422 71.315 5.496 66.494 5.496 Z M 66.494 18.647 C 64.083 18.647 62.129 16.683 62.129 14.264 L 62.129 14.231 C 62.147 11.824 64.093 9.879 66.494 9.879 C 68.905 9.879 70.859 11.843 70.859 14.264 C 70.859 16.683 68.905 18.647 66.494 18.647 Z" fill="rgb(161, 161, 170)"/><path d="M 50.308 16.34 C 48.057 15.442 46.089 15.377 46.089 15.377 C 45.543 17.509 43.485 18.898 41.295 18.615 C 40.813 18.552 40.345 18.408 39.911 18.189 L 49.783 10.582 C 48.537 7.865 45.977 5.976 43.005 5.579 C 38.225 4.946 33.842 8.326 33.212 13.123 C 32.584 17.923 35.947 22.325 40.725 22.957 C 45.141 23.541 49.219 20.561 50.31 16.34 Z M 37.535 13.696 C 37.85 11.293 40.044 9.603 42.435 9.92 C 42.931 9.985 43.396 10.133 43.819 10.346 L 37.587 15.149 C 37.489 14.671 37.472 14.18 37.535 13.696 Z M 113.814 12.37 L 110.943 12.367 C 110.613 12.365 110.297 12.233 110.064 12 C 109.832 11.766 109.702 11.45 109.704 11.122 C 109.704 10.435 110.258 9.879 110.943 9.879 L 117.214 9.879 C 117.238 9.801 117.856 7.913 117.858 5.514 L 110.646 5.514 C 107.715 5.514 105.339 7.9 105.339 10.845 C 105.339 13.789 107.715 16.178 110.646 16.178 L 113.519 16.178 C 114.202 16.178 114.758 16.734 114.758 17.422 C 114.759 17.75 114.63 18.066 114.397 18.299 C 114.165 18.533 113.849 18.664 113.519 18.666 L 106.406 18.666 C 105.98 20.082 105.764 21.552 105.762 23.03 L 113.814 23.03 C 116.746 23.03 119.123 20.644 119.123 17.7 C 119.123 14.756 116.746 12.37 113.814 12.37 Z" fill="rgb(161, 161, 170)"/></g></g></g></svg>