<svg xmlns="http://www.w3.org/2000/svg" viewBox="0 0 139.165 29.894" overflow="visible" ><g><path d="M 57.827 5.889 L 57.827 23.803 L 54.734 23.803 L 54.734 9.745 L 54.693 9.745 L 49.166 23.803 L 47.103 23.803 L 41.453 9.745 L 41.411 9.745 L 41.411 23.803 L 38.565 23.803 L 38.565 5.889 L 43.02 5.889 L 48.134 19.159 L 48.217 19.159 L 53.62 5.889 Z M 60.385 7.257 C 60.385 6.76 60.55 6.345 60.921 6.013 C 61.292 5.681 61.704 5.516 62.199 5.516 C 62.736 5.516 63.189 5.681 63.519 6.013 C 63.849 6.345 64.055 6.76 64.055 7.257 C 64.055 7.755 63.89 8.17 63.519 8.501 C 63.148 8.833 62.736 8.999 62.199 8.999 C 61.663 8.999 61.251 8.833 60.921 8.501 C 60.591 8.128 60.385 7.713 60.385 7.257 Z M 63.725 10.948 L 63.725 23.803 L 60.714 23.803 L 60.714 10.948 Z M 72.841 21.606 C 73.295 21.606 73.79 21.523 74.326 21.274 C 74.862 21.066 75.357 20.776 75.811 20.444 L 75.811 23.264 C 75.316 23.555 74.779 23.762 74.161 23.886 C 73.542 24.011 72.882 24.094 72.14 24.094 C 70.242 24.094 68.716 23.513 67.561 22.311 C 66.365 21.108 65.788 19.574 65.788 17.749 C 65.788 15.675 66.406 13.975 67.603 12.648 C 68.799 11.321 70.49 10.658 72.717 10.658 C 73.295 10.658 73.872 10.741 74.408 10.865 C 74.986 10.99 75.439 11.197 75.769 11.363 L 75.769 14.266 C 75.316 13.934 74.821 13.644 74.367 13.478 C 73.872 13.312 73.377 13.187 72.882 13.187 C 71.686 13.187 70.737 13.561 69.995 14.348 C 69.252 15.136 68.922 16.173 68.922 17.5 C 68.922 18.786 69.294 19.822 69.995 20.527 C 70.696 21.232 71.645 21.606 72.841 21.606 Z M 84.349 10.741 C 84.596 10.741 84.802 10.741 85.008 10.782 C 85.215 10.824 85.38 10.865 85.503 10.907 L 85.503 13.975 C 85.338 13.851 85.132 13.726 84.802 13.644 C 84.472 13.561 84.142 13.478 83.689 13.478 C 82.946 13.478 82.327 13.809 81.832 14.431 C 81.338 15.053 81.049 16.007 81.049 17.334 L 81.049 23.803 L 78.038 23.803 L 78.038 10.948 L 81.049 10.948 L 81.049 12.98 L 81.09 12.98 C 81.379 12.275 81.791 11.736 82.327 11.321 C 82.905 10.948 83.565 10.741 84.349 10.741 Z M 85.668 17.583 C 85.668 15.468 86.287 13.768 87.442 12.524 C 88.638 11.28 90.288 10.658 92.391 10.658 C 94.371 10.658 95.939 11.238 97.052 12.441 C 98.166 13.644 98.743 15.261 98.743 17.293 C 98.743 19.366 98.125 21.025 96.97 22.269 C 95.774 23.513 94.165 24.135 92.103 24.135 C 90.123 24.135 88.556 23.555 87.401 22.393 C 86.246 21.191 85.668 19.574 85.668 17.583 Z M 88.803 17.459 C 88.803 18.786 89.092 19.822 89.71 20.527 C 90.329 21.232 91.195 21.606 92.309 21.606 C 93.381 21.606 94.248 21.274 94.825 20.527 C 95.402 19.822 95.691 18.786 95.691 17.376 C 95.691 16.007 95.402 14.971 94.825 14.224 C 94.248 13.519 93.381 13.146 92.35 13.146 C 91.237 13.146 90.412 13.519 89.793 14.266 C 89.092 15.053 88.803 16.09 88.803 17.459 Z M 103.239 14.348 C 103.239 14.763 103.363 15.136 103.652 15.385 C 103.94 15.634 104.518 15.924 105.467 16.298 C 106.663 16.795 107.529 17.334 107.983 17.915 C 108.477 18.537 108.725 19.242 108.725 20.113 C 108.725 21.315 108.271 22.269 107.323 23.015 C 106.415 23.762 105.137 24.094 103.569 24.094 C 103.033 24.094 102.456 24.011 101.796 23.886 C 101.136 23.762 100.599 23.596 100.146 23.389 L 100.146 20.403 C 100.682 20.776 101.301 21.108 101.919 21.315 C 102.538 21.523 103.115 21.647 103.652 21.647 C 104.312 21.647 104.848 21.564 105.137 21.357 C 105.467 21.149 105.631 20.859 105.631 20.403 C 105.631 19.988 105.467 19.656 105.137 19.325 C 104.807 19.034 104.147 18.703 103.239 18.329 C 102.126 17.873 101.342 17.334 100.888 16.754 C 100.434 16.173 100.187 15.427 100.187 14.514 C 100.187 13.353 100.641 12.399 101.548 11.653 C 102.456 10.907 103.652 10.533 105.095 10.533 C 105.549 10.533 106.044 10.575 106.58 10.699 C 107.116 10.824 107.611 10.948 107.983 11.072 L 107.983 14.017 C 107.57 13.768 107.116 13.519 106.58 13.312 C 106.044 13.104 105.508 13.021 105.013 13.021 C 104.435 13.021 103.982 13.146 103.693 13.353 C 103.404 13.644 103.239 13.934 103.239 14.348 Z M 110.004 17.583 C 110.004 15.468 110.622 13.768 111.777 12.524 C 112.973 11.28 114.623 10.658 116.727 10.658 C 118.706 10.658 120.274 11.238 121.387 12.441 C 122.501 13.644 123.079 15.261 123.079 17.293 C 123.079 19.366 122.46 21.025 121.305 22.269 C 120.109 23.513 118.5 24.135 116.438 24.135 C 114.458 24.135 112.891 23.555 111.736 22.393 C 110.622 21.191 110.004 19.574 110.004 17.583 Z M 113.138 17.459 C 113.138 18.786 113.427 19.822 114.046 20.527 C 114.664 21.232 115.531 21.606 116.644 21.606 C 117.717 21.606 118.583 21.274 119.16 20.527 C 119.738 19.822 120.026 18.786 120.026 17.376 C 120.026 16.007 119.738 14.971 119.16 14.224 C 118.583 13.519 117.717 13.146 116.685 13.146 C 115.572 13.146 114.747 13.519 114.128 14.266 C 113.468 15.053 113.138 16.09 113.138 17.459 Z M 133.101 13.436 L 128.606 13.436 L 128.606 23.803 L 125.553 23.803 L 125.553 13.436 L 123.409 13.436 L 123.409 10.948 L 125.553 10.948 L 125.553 9.165 C 125.553 7.838 126.007 6.718 126.873 5.847 C 127.739 4.977 128.853 4.562 130.214 4.562 C 130.585 4.562 130.915 4.603 131.204 4.603 C 131.493 4.603 131.74 4.686 131.946 4.769 L 131.946 7.382 C 131.864 7.34 131.658 7.257 131.41 7.174 C 131.163 7.091 130.874 7.05 130.544 7.05 C 129.925 7.05 129.43 7.257 129.101 7.631 C 128.771 8.004 128.606 8.626 128.606 9.372 L 128.606 10.907 L 133.101 10.907 L 133.101 8.004 L 136.112 7.091 L 136.112 10.907 L 139.165 10.907 L 139.165 13.395 L 136.112 13.395 L 136.112 19.408 C 136.112 20.196 136.277 20.735 136.525 21.066 C 136.814 21.398 137.267 21.564 137.886 21.564 C 138.051 21.564 138.257 21.523 138.505 21.44 C 138.752 21.357 138.958 21.274 139.123 21.149 L 139.123 23.638 C 138.917 23.762 138.628 23.845 138.175 23.928 C 137.721 24.011 137.308 24.052 136.855 24.052 C 135.576 24.052 134.627 23.72 134.009 23.057 C 133.39 22.393 133.06 21.357 133.06 19.988 Z" fill="rgb(161, 161, 170)"/><path d="M 0 0 L 14.106 0 L 14.106 14.182 L 0 14.182 Z" fill="rgb(161, 161, 170)"/><path d="M 15.627 0 L 29.733 0 L 29.733 14.182 L 15.627 14.182 Z" fill="rgb(161, 161, 170)"/><path d="M 0 15.712 L 14.106 15.712 L 14.106 29.894 L 0 29.894 Z" fill="rgb(161, 161, 170)"/><path d="M 15.627 15.712 L 29.733 15.712 L 29.733 29.894 L 15.627 29.894 Z" fill="rgb(161, 161, 170)"/></g></svg>