<svg xmlns="http://www.w3.org/2000/svg" viewBox="0 0 210.888 27.401" overflow="visible" ><g><path d="M 152.655 0.005 L 157.138 0.005 L 157.138 22.924 L 176.574 22.924 L 173.72 27.401 L 152.655 27.401 Z M 112.019 27.401 L 98.495 6.041 L 92.719 15.058 L 103.32 15.058 L 100.533 19.534 L 89.932 19.534 L 84.97 27.401 L 79.534 27.401 L 95.979 1.361 C 97.135 -0.401 99.852 -0.401 100.872 1.293 L 117.453 27.401 Z M 149.319 0 L 146.536 4.472 L 127.678 4.472 C 122.571 4.472 119.584 8.605 119.584 13.703 C 119.584 18.801 122.572 22.934 127.678 22.934 L 148.848 22.934 L 145.965 27.371 L 127.543 27.394 C 119.969 27.394 114.98 21.262 114.98 13.703 C 114.98 6.142 119.967 0.014 127.543 0.014 Z M 4.469 13.703 C 4.469 18.801 7.455 22.934 12.564 22.934 L 31.999 22.934 C 37.109 22.934 40.095 18.801 40.095 13.703 C 40.095 8.605 37.108 4.472 31.999 4.472 L 12.564 4.472 C 7.455 4.472 4.469 8.605 4.469 13.703 Z M 31.999 0.014 C 39.576 0.014 44.563 6.142 44.563 13.703 C 44.563 21.262 39.576 27.394 31.999 27.394 L 12.564 27.394 C 4.987 27.394 0 21.262 0 13.703 C 0 6.142 4.987 0.014 12.564 0.014 Z M 189.249 22.934 L 210.418 22.934 L 207.533 27.371 L 189.114 27.394 C 181.535 27.394 176.551 21.262 176.551 13.703 C 176.551 6.142 181.537 0.014 189.114 0.014 L 210.888 0.001 L 208.107 4.473 L 189.25 4.473 C 184.951 4.473 182.145 7.432 181.367 11.399 L 207.972 11.399 L 205.118 15.875 L 181.365 15.875 C 182.096 19.925 184.889 22.934 189.249 22.934 Z M 66.69 16.28 L 78.243 27.369 L 71.751 27.369 L 55.614 11.81 L 69.918 11.81 C 71.949 11.81 73.594 10.168 73.594 8.142 C 73.594 6.116 71.949 4.473 69.918 4.473 L 52.08 4.473 L 52.08 27.4 L 47.051 27.4 L 47.051 0.004 L 69.918 0.014 C 74.362 0.091 77.923 3.707 77.923 8.142 C 77.923 12.576 74.362 16.192 69.918 16.27 Z" fill="rgb(161, 161, 170)"/></g></svg>