<svg xmlns="http://www.w3.org/2000/svg" viewBox="0 0 254.964 27.8" overflow="visible" ><path d="M 114.962 0.592 L 114.962 6.63 L 107.843 6.63 L 107.843 27.246 L 99.047 27.246 L 99.047 6.63 L 91.718 6.63 L 91.718 0.592 Z M 246.362 16.209 C 244.801 15.945 244.728 12.95 246.037 12.555 C 246.679 12.361 253.538 12.363 254.001 12.569 C 254.624 12.846 254.793 13.819 254.85 14.431 C 255.015 16.186 255.062 23.637 254.569 24.997 C 253.882 26.89 249.451 27.55 247.626 27.671 C 243.187 27.966 236.429 28.137 234.216 23.498 C 232.508 19.916 232.529 8.182 234.283 4.615 C 236.567 -0.029 243.363 0.302 247.836 0.581 C 249.198 0.667 252.895 0.996 253.152 2.582 C 253.894 7.168 249.678 4.544 246.987 4.342 C 243.915 4.111 238.954 3.792 237.822 7.301 C 236.955 9.991 236.911 18.656 237.923 21.267 C 238.646 23.129 240.517 23.739 242.385 23.91 C 243.586 24.02 249.904 24.008 250.461 23.152 C 250.732 22.735 250.759 17.729 250.663 16.928 C 250.638 16.717 250.566 16.209 250.338 16.209 C 249.212 16.209 247.362 16.378 246.36 16.209 Z M 215.581 15.585 C 214.675 15.837 215.149 19.385 215.294 20.245 C 215.696 22.638 216.425 23.468 218.936 23.704 C 221.87 23.977 226.547 23.181 229.148 23.752 C 230.619 24.074 230.431 26.94 229.502 27.346 C 225.72 27.317 221.43 27.758 217.668 27.462 C 214.292 27.196 212.125 25.597 211.352 22.292 C 210.524 18.752 210.413 7.255 211.974 4.086 C 212.603 2.807 214.015 1.645 215.363 1.208 C 217.561 0.494 226.172 0.575 228.784 0.794 C 229.622 0.864 229.987 0.846 230.116 1.751 C 230.246 2.657 230.381 4.142 229.31 4.456 C 225.95 4.854 222.262 4.244 218.938 4.554 C 217.689 4.671 216.369 5.002 215.79 6.214 C 215.39 7.055 214.824 10.895 215.168 11.628 C 215.214 11.726 215.547 12.047 215.583 12.047 L 227.937 12.047 C 228.943 12.047 228.943 15.587 227.937 15.587 L 215.583 15.587 Z M 206.42 5.123 C 205.655 5.883 201.567 4.446 200.288 4.342 C 198.427 4.19 193.911 4.09 192.538 5.375 C 191.407 6.435 191.407 9.302 192.92 10.212 C 196.652 12.461 205.643 11.578 207.085 16.949 C 208.036 20.491 207.213 25.134 203.535 26.721 C 200.8 27.9 190.99 28.229 188.563 26.621 C 187.519 25.93 187.217 23.481 188.246 22.973 C 189.173 22.517 192.84 23.8 194.221 23.908 C 197.256 24.145 202.747 24.472 203.126 20.484 C 203.298 18.685 203.168 17.738 201.51 16.869 C 196.474 14.233 187.274 15.82 187.398 7.772 C 187.471 2.955 190.275 0.916 194.837 0.581 C 196.958 0.425 204.541 0.452 206.062 1.722 C 206.76 2.305 206.995 4.55 206.418 5.121 Z M 79.991 0.592 L 88.996 0.592 L 88.996 27.246 L 79.991 27.246 Z M 117.894 0.592 L 126.899 0.592 L 126.899 27.246 L 117.894 27.246 Z M 167.061 0.238 C 177.764 -0.71 182.785 0.775 183.225 12.151 C 183.366 15.795 183.229 22.569 180.482 25.245 C 177.231 28.414 165.892 28.41 162.09 26.294 C 157.289 23.623 157.542 13.985 158.102 9.235 C 158.783 3.451 161.086 0.766 167.061 0.238 Z M 168.935 6.472 C 167.922 6.641 167.447 7.074 167.159 8.04 C 166.68 9.66 166.684 18.171 167.159 19.799 C 167.361 20.491 167.677 21.055 168.396 21.278 C 169.176 21.519 171.569 21.515 172.395 21.367 C 173.639 21.144 174.063 20.155 174.201 19 C 174.503 16.47 174.561 10.958 174.13 8.496 C 173.706 6.081 170.965 6.139 168.935 6.474 Z M 138.624 0.592 L 143.336 22.042 L 148.047 0.592 L 157.052 0.592 L 149.595 27.258 L 136.969 27.225 L 129.621 0.592 Z M 36.184 0.238 C 40.487 -0.129 47.918 -0.275 50.429 3.857 C 52.872 7.878 52.921 20.97 49.924 24.728 C 46.801 28.647 34.187 28.572 30.377 25.88 C 26.567 23.187 26.714 14.237 27.016 9.86 C 27.443 3.676 29.874 0.775 36.184 0.238 Z M 42.451 20.94 C 43.042 20.341 43.299 17.85 43.356 16.946 C 43.477 14.947 43.532 9.546 42.884 7.819 C 42.249 6.126 39.779 6.264 38.217 6.42 C 35.914 6.649 35.927 8.544 35.801 10.472 C 35.673 12.409 35.585 18.858 36.329 20.376 C 37.033 21.813 41.644 21.759 42.453 20.94 Z M 9.005 19.125 L 9.005 27.246 L 0 27.246 L 0 0.592 C 5.053 0.823 10.376 0.285 15.399 0.583 C 23.522 1.066 25.125 4.381 24.507 12.157 C 23.857 20.322 14.984 18.889 9.003 19.125 Z M 14.136 6.422 C 12.606 6.197 10.594 6.589 9.005 6.422 L 9.005 13.502 L 13.926 13.502 C 15.971 13.502 15.82 10.214 15.703 8.821 C 15.602 7.632 15.475 6.62 14.136 6.422 Z M 75.175 0.592 L 75.175 6.526 C 75.175 7.091 73.76 6.63 73.404 6.62 C 70.937 6.547 67.19 6.374 64.833 6.653 C 62.636 6.912 61.878 8.834 63.785 9.731 C 68.641 12.013 76.422 10.02 77.055 17.775 C 77.463 22.781 75.791 25.973 70.778 27.144 C 65.924 28.279 60.025 27.556 55.071 27.246 L 55.071 21.207 C 57.975 21.011 60.872 21.538 63.77 21.426 C 64.766 21.386 67.379 21.205 68.131 20.765 C 69.022 20.245 68.875 18.733 67.995 18.246 C 61.534 15.832 53.732 17.088 54.444 7.78 C 55.199 -2.024 68.418 0.19 75.175 0.592 Z" fill="rgb(161, 161, 170)"/></svg>